<?xml version="1.0" encoding="UTF-8" standalone="no"?>
<svg
  width="1000"
  height="1000"
  viewBox="0 0 1000 1000"
  fill="none">
  <g
    transform="translate(-2.1343692,-1.833124)">
    <path
      d="m 956.81086,281.15745 c -0.11,89.997 -36,176.267 -99.79,239.83 v -0.007 l -226.29,225.489 c -7.841,7.82 -20.58,7.84 -27.927,-0.44 -55.015,-61.995 -85.588,-142.175 -85.49,-225.478 0.105,-89.997 36,-176.267 99.787,-239.83 l 0.007,0.007 206.743,-206.014003 c 18.63,-18.568999 49.12,-18.701999 64.92,2.324 43.99,58.525003 68.13,130.089003 68.04,204.119003 z"
      fill="#9277ff" />
    <path
      d="m 147.24386,522.36145 c -63.786999,-63.563 -99.680998,-149.833 -99.785998,-239.83 -0.087,-74.03 24.047999,-145.594 68.034998,-204.119003 15.803,-21.025999 46.293,-20.892999 64.928,-2.324 l 206.74,206.016003 0.007,-0.007 c 63.787,63.564 99.681,149.833 99.787,239.831 0.097,83.302 -30.475,163.483 -85.49,225.471 -7.348,8.28 -20.087,8.26 -27.927,0.45 l -226.287,-225.494 z"
      fill="#9277ff" />
    <path
      d="m 848.51086,925.84945 c -16.63,20.39 -47.03,20.21 -65.63,1.59 l -127.696,-127.84 c -7.836,-7.85 -7.821,-20.56 0.033,-28.39 l 212.093,-211.345 c 7.84,-7.813 20.63,-7.859 27.54,0.784 36.81,45.996 51.29,109.566 40.35,179.551 -10.02,64.06 -40.66,129.19 -86.69,185.65 z"
      fill="#da81f9" />
    <path
      d="m 221.38886,928.81945 c -18.594,18.61 -49.002,18.79 -65.626,-1.6 -46.036,-56.46 -76.671999,-121.58 -86.687999,-185.64 -10.942,-69.992 3.532,-133.562 40.341999,-179.558 6.917,-8.642 19.704,-8.597 27.545,-0.784 l 212.091,211.352 c 7.854,7.82 7.869,20.54 0.034,28.38 z"
      fill="#da81f9" />
  </g>
</svg>
